<?xml version="1.0" encoding="UTF-8"?>
<svg id="Layer_1" xmlns="http://www.w3.org/2000/svg" xmlns:xlink="http://www.w3.org/1999/xlink"
    viewBox="0 0 838 321">
    <defs>
        <linearGradient id="linear-gradient" x1="158.25" y1="101.89" x2="158.25" y2="219.39"
            gradientUnits="userSpaceOnUse">
            <stop offset="0" stop-color="#efb50c" />
            <stop offset="1" stop-color="#ff9901" />
        </linearGradient>
    </defs>
    <path
        d="M296.46,142.18c-.04,7.39-2.57,13.48-7.59,18.27-5.02,4.79-11.19,7.2-18.51,7.24-7.32,0-12.61-1.08-15.87-3.25v32.21h-3.9c-4.44,0-6.66-2.28-6.66-6.85v-67.9c5.9-2.32,12.49-3.48,19.77-3.48h6.02c7.86,0,14.31,2.1,19.33,6.3,4.94,4.24,7.4,10.06,7.4,17.45ZM286.15,143.4c0-10.2-5.36-15.3-16.08-15.3h-6.09c-2.93,0-6.09.4-9.49,1.19v26.08c3.77,2.05,8.63,3.07,14.58,3.07s10.26-1.34,12.94-4.01c2.76-2.67,4.15-6.35,4.15-11.03Z"
        fill="#425066" stroke-width="0" />
    <path
        d="M336.86,150.47h-.5c-2.3-1.97-5.38-2.95-9.24-2.95s-6.56,1.17-8.1,3.52c-1.59,2.35-2.39,6.62-2.39,12.82v32.8h-4.29c-1.84,0-3.27-.63-4.29-1.88-1.02-1.25-1.51-2.85-1.47-4.77v-26.92c0-7.87,1.77-13.95,5.31-18.26,3.54-4.31,8.22-6.48,14.04-6.53,3.77,0,6.53.71,8.29,2.13,1.76,1.42,2.64,3.19,2.64,5.31v4.75Z"
        fill="#425066" stroke-width="0" />
    <path
        d="M457.36,123.4c0,1.28-.55,2.46-1.64,3.54-1.09,1.08-2.65,1.63-4.67,1.68h-29.32v22.68h30.35v3.26c0,1.85-.61,3.31-1.83,4.37s-2.84,1.6-4.86,1.6h-23.66v36.13h-3.97c-4.39,0-6.58-2.09-6.58-6.28v-61.76c0-3.52.82-6.01,2.45-7.48,1.63-1.47,4.59-2.2,8.86-2.2h34.87v4.47Z"
        fill="#425066" stroke-width="0" />
    <path
        d="M478.78,119.55c1.01,1.25,1.52,2.72,1.52,4.43s-.61,3.12-1.84,4.26c-1.22,1.13-2.71,1.72-4.45,1.76-1.74,0-3.24-.59-4.51-1.76-1.22-1.21-1.84-2.65-1.84-4.31s.65-3.12,1.96-4.37c1.35-1.25,2.96-1.87,4.82-1.87s3.31.62,4.32,1.87ZM492.49,191.17c0,1.91-.52,3.4-1.57,4.46-1.05,1.06-2.45,1.57-4.21,1.53-11.69,0-17.53-5.78-17.53-17.34v-41.72h2.99c1.91,0,3.56.71,4.96,2.13,1.4,1.42,2.1,3.32,2.1,5.7v32.34c0,6.43,3.01,9.65,9.02,9.65h4.23v3.25Z"
        fill="#425066" stroke-width="0" />
    <path
        d="M552.11,196.65h-3.7c-4.24,0-6.36-2.14-6.36-6.41v-26.89c0-6.03-1.17-10.35-3.51-12.94-2.34-2.6-6.14-3.92-11.41-3.96-9.15,0-13.73,5.63-13.73,16.9v33.3h-3.76c-1.91,0-3.44-.58-4.58-1.76-1.15-1.17-1.72-2.86-1.72-5.08v-26.71c0-8.07,2.28-14.4,6.84-19,4.56-4.6,10.59-6.9,18.07-6.9s13.33,2.15,17.53,6.46,6.31,10.74,6.31,19.31v33.67Z"
        fill="#425066" stroke-width="0" />
    <path
        d="M620.97,165.61c.04,11.23-2.06,19.39-6.31,24.5-4.25,5.11-10.93,7.67-20.05,7.67-7.3,0-13.59-2.88-18.87-8.65s-7.93-12.73-7.93-20.88c0-10.03,2.23-17.73,6.69-23.11,4.42-5.37,10.64-8.06,18.67-8.06s13.94,3.73,17.75,11.19v-33.18h2.67c4.92,0,7.38,2.7,7.38,8.1v42.41ZM610.92,168.51c0-14.79-5.75-22.18-17.25-22.18-5.02,0-8.9,1.83-11.66,5.48-2.76,3.7-4.14,8.7-4.14,15s1.65,11.51,4.95,15.63c3.3,4.12,7.57,6.15,12.79,6.11,5.23,0,9.09-1.57,11.6-4.73,2.51-3.15,3.74-8.25,3.7-15.31Z"
        fill="#425066" stroke-width="0" />
    <path
        d="M664.36,136.71c6.01,0,11.28,1.97,15.8,5.91,4.52,3.94,6.76,8.7,6.72,14.29,0,5.59-1.75,9.48-5.24,11.69-3.49,2.2-10.15,3.32-19.99,3.37h-14.48c.42,4.99,2.32,8.98,5.7,12,3.38,3.02,7.76,4.54,13.13,4.59,7.69,0,13.67-2.01,17.94-6.03h.52v4.34c0,3.27-1.72,5.91-5.17,7.92-3.45,2.01-8.38,3.02-14.81,3.02-7.95,0-14.5-2.76-19.65-8.29-5.15-5.53-7.72-12.73-7.72-21.61s2.59-16.27,7.78-22.18c5.19-5.99,11.68-8.98,19.46-8.98ZM676.83,157.95c0-3.35-1.15-6.2-3.46-8.54-2.31-2.35-5.73-3.5-10.26-3.46-4.57,0-8.33,1.59-11.27,4.78-2.94,3.18-4.49,6.83-4.66,10.93l-.13,2.45,13.28-.25c6.88-.08,11.35-.54,13.41-1.38,2.06-.84,3.09-2.34,3.09-4.52Z"
        fill="#425066" stroke-width="0" />
    <path
        d="M733.5,150.47h-.5c-2.3-1.97-5.38-2.95-9.24-2.95s-6.56,1.17-8.11,3.52c-1.59,2.35-2.39,6.62-2.39,12.82v32.8h-4.29c-1.84,0-3.27-.63-4.29-1.88-1.02-1.25-1.51-2.85-1.47-4.77v-26.92c0-7.87,1.77-13.95,5.31-18.26,3.54-4.31,8.22-6.48,14.04-6.53,3.77,0,6.53.71,8.29,2.13,1.76,1.42,2.64,3.19,2.64,5.31v4.75Z"
        fill="#425066" stroke-width="0" />
    <path
        d="M387.34,188c4.15-4.08,7.03-9.51,7.86-15.71,1.97-14.83-8.5-28.49-23.32-30.45s-28.49,8.5-30.45,23.32c-1.97,14.83,8.5,28.49,23.32,30.45,6.2.82,12.19-.55,17.21-3.49l12.81,16.73c.57.74,1.39,1.19,2.25,1.3s1.76-.1,2.51-.67c1.49-1.14,1.77-3.27.63-4.75l-12.81-16.73ZM365.63,188.89c-11.12-1.47-18.97-11.72-17.49-22.84,1.47-11.12,11.72-18.97,22.84-17.49,11.12,1.47,18.97,11.72,17.49,22.84-1.47,11.12-11.72,18.97-22.84,17.49ZM351.5,166.5c1.23-9.27,9.77-15.81,19.03-14.58,1.86.25,3.16,1.95,2.92,3.81-.25,1.86-1.95,3.16-3.81,2.92-5.56-.74-10.68,3.19-11.42,8.75-.25,1.86-1.95,3.16-3.81,2.92-1.86-.25-3.16-1.95-2.92-3.81Z"
        fill="#425066" stroke-width="0" />
    <rect x="99.5" y="101.89" width="117.5" height="117.5" rx="12.45" ry="12.45"
        fill="url(#linear-gradient)" stroke-width="0" />
    <path
        d="M158.25,178.13c-3.07,0-5.55-2.49-5.55-5.55s2.49-5.55,5.55-5.55c10.1,0,18.32-8.22,18.32-18.32s-8.22-18.32-18.32-18.32h-23.88c-3.07,0-5.55-2.49-5.55-5.55s2.49-5.55,5.55-5.55h23.88c16.23,0,29.43,13.2,29.43,29.43s-13.2,29.43-29.43,29.43Z"
        fill="#130160" stroke-width="0" />
    <path
        d="M134.38,202c-3.07,0-5.55-2.49-5.55-5.55v-47.75c0-3.07,2.49-5.55,5.55-5.55h23.88c3.07,0,5.55,2.49,5.55,5.55s-2.49,5.55-5.55,5.55h-18.32v42.2c0,3.07-2.49,5.55-5.55,5.55Z"
        fill="#130160" stroke-width="0" />
</svg>